HIERARCHY
ROOT Hips
{
	OFFSET -21.947001 39.810204 44.525997
	CHANNELS 6 Xposition Yposition Zposition Zrotation Xrotation Yrotation
	JOINT Chest
	{
		OFFSET -0.201599 0.334099 6.453201
		CHANNELS 6 Xposition Yposition Zposition Zrotation Xrotation Yrotation
		JOINT Chest2
		{
			OFFSET 0.000000 0.000000 3.568001
			CHANNELS 6 Xposition Yposition Zposition Zrotation Xrotation Yrotation
			JOINT Neck
			{
				OFFSET 0.000000 0.000000 8.296402
				CHANNELS 6 Xposition Yposition Zposition Zrotation Xrotation Yrotation
				JOINT Head
				{
					OFFSET 0.000000 0.000000 2.173901
					CHANNELS 6 Xposition Yposition Zposition Zrotation Xrotation Yrotation
					End Site
					{
						OFFSET 0.000000 0.000000 7.891998
					}
				}
			}
			JOINT LeftCollar
			{
				OFFSET 1.927601 0.221401 6.049000
				CHANNELS 6 Xposition Yposition Zposition Zrotation Xrotation Yrotation
				JOINT LeftShoulder
				{
					OFFSET 4.959700 0.000000 0.000000
					CHANNELS 6 Xposition Yposition Zposition Zrotation Xrotation Yrotation
					JOINT LeftElbow
					{
						OFFSET 0.000000 0.000000 -8.654202
						CHANNELS 6 Xposition Yposition Zposition Zrotation Xrotation Yrotation
						JOINT LeftWrist
						{
							OFFSET 0.000000 0.000000 -13.864101
							CHANNELS 6 Xposition Yposition Zposition Zrotation Xrotation Yrotation
							End Site
							{
								OFFSET 0.000000 0.000000 -2.173901
							}
						}
					}
				}
			}
			JOINT RightCollar
			{
				OFFSET -3.155701 -0.764999 6.687801
				CHANNELS 6 Xposition Yposition Zposition Zrotation Xrotation Yrotation
				JOINT RightShoulder
				{
					OFFSET -3.592899 0.000000 0.000000
					CHANNELS 6 Xposition Yposition Zposition Zrotation Xrotation Yrotation
					JOINT RightElbow
					{
						OFFSET 0.000000 0.000000 -10.352398
						CHANNELS 6 Xposition Yposition Zposition Zrotation Xrotation Yrotation
						JOINT RightWrist
						{
							OFFSET 0.000000 0.000000 -12.750301
							CHANNELS 6 Xposition Yposition Zposition Zrotation Xrotation Yrotation
							End Site
							{
								OFFSET 0.000000 0.000000 -2.173901
							}
						}
					}
				}
			}
		}
	}
	JOINT LeftHip
	{
		OFFSET 2.460600 -0.518101 -2.735500
		CHANNELS 6 Xposition Yposition Zposition Zrotation Xrotation Yrotation
		JOINT LeftKnee
		{
			OFFSET 0.000000 -0.000004 -17.005899
			CHANNELS 6 Xposition Yposition Zposition Zrotation Xrotation Yrotation
			JOINT LeftAnkle
			{
				OFFSET 0.000000 0.000000 -19.194401
				CHANNELS 6 Xposition Yposition Zposition Zrotation Xrotation Yrotation
				End Site
				{
					OFFSET 0.000000 -8.134600 0.000000
				}
			}
		}
	}
	JOINT RightHip
	{
		OFFSET -3.115499 -0.679600 -2.320301
		CHANNELS 6 Xposition Yposition Zposition Zrotation Xrotation Yrotation
		JOINT RightKnee
		{
			OFFSET 0.000000 -0.000004 -17.680401
			CHANNELS 6 Xposition Yposition Zposition Zrotation Xrotation Yrotation
			JOINT RightAnkle
			{
				OFFSET 0.000000 0.000000 -16.993797
				CHANNELS 6 Xposition Yposition Zposition Zrotation Xrotation Yrotation
				End Site
				{
					OFFSET 0.000000 -8.842300 0.000000
				}
			}
		}
	}
}
MOTION
Frames: 6
Frame Time: 0.041667
-10.035799 22.661705 44.914291 2442.327459 6.256315 4.966564 -0.201598 0.334097 6.453196 2.003707 -15.244393 3.671290 0.000001 0.000005 3.567996 0.172239 -1.016574 0.077145 -0.000002 -0.000003 8.296398 238.214377 -171.186452 186.496430 0.000001 0.000000 2.173900 2.666179 -0.263580 5.734743 1.927601 0.221404 6.049000 -24.793884 5.547916 4.047772 4.959699 0.000000 0.000000 114.990210 201.438562 70.483884 -0.000002 0.000004 -8.654196 58.449255 -35.531764 28.787960 0.000000 -0.000001 -13.864104 4057.166900 -160.282028 145.167816 -3.155704 -0.764998 6.687797 49.481640 16.825768 0.232967 -3.592903 -0.000003 0.000007 -132.613505 211.212590 278.102135 -0.000006 -0.000002 -10.352396 -210.785703 -134.067174 -164.216640 0.000002 -0.000003 -12.750305 -84.519752 174.691145 -186.067986 2.460604 -0.518099 -2.735496 -4.820608 -0.800243 -1.382874 -0.000006 -0.000005 -17.005899 -141.693873 178.986774 -166.534478 -0.000006 0.000004 -19.194401 569.083876 157.328394 171.855360 -3.115499 -0.679595 -2.320297 5.509955 5.871923 -3.184137 -0.000002 -0.000005 -17.680395 -844.564202 157.600400 -202.261723 0.000003 0.000004 -16.993797 1063.296311 51.909489 -393.052634
-10.041494 22.649708 44.914593 2442.388002 6.263174 4.954383 -0.201603 0.334100 6.453203 1.900305 -15.110066 3.703471 0.000001 0.000003 3.567997 0.245580 -1.114620 0.068266 0.000000 -0.000005 8.296394 238.204377 -170.942901 186.665300 -0.000001 -0.000002 2.173898 2.855800 -0.475599 5.507388 1.927600 0.221407 6.048994 -24.760086 5.525122 4.055000 4.959703 -0.000002 0.000003 114.975388 201.499569 70.579241 -0.000007 0.000002 -8.654198 58.513548 -35.648403 28.843110 0.000002 0.000000 -13.864089 4056.931723 -159.951214 145.242333 -3.155709 -0.765000 6.687797 49.435926 16.735483 0.045600 -3.592898 0.000002 0.000010 -132.569833 211.137854 278.195873 -0.000005 0.000000 -10.352400 -211.010184 -133.873456 -164.417967 -0.000002 -0.000005 -12.750307 -84.449272 174.743519 -186.104924 2.460599 -0.518102 -2.735500 -4.813795 -0.804757 -1.369297 -0.000006 -0.000003 -17.005901 -141.785383 178.972348 -166.537306 -0.000006 0.000000 -19.194397 569.096443 157.339241 171.849895 -3.115497 -0.679595 -2.320292 5.434531 5.833783 -3.160443 -0.000002 0.000004 -17.680399 -844.785992 157.479915 -202.246122 0.000001 0.000001 -16.993795 1063.546022 51.988999 -392.786421
-10.051094 22.645905 44.910896 2442.438054 6.272442 5.052992 -0.201596 0.334102 6.453197 1.792252 -14.991994 3.624266 0.000002 0.000002 3.568000 0.282347 -1.210934 0.057257 0.000000 -0.000002 8.296398 238.117333 -170.646293 186.792369 0.000001 0.000000 2.173899 3.104016 -0.601390 5.348291 1.927596 0.221405 6.048994 -24.789439 5.551264 4.077101 4.959698 -0.000003 0.000011 115.014320 201.642375 70.626458 0.000003 -0.000002 -8.654203 58.502585 -35.786616 28.890211 -0.000000 -0.000006 -13.864096 4056.732391 -159.753412 145.179414 -3.155709 -0.764997 6.687802 49.543877 16.701769 -0.269168 -3.592896 0.000002 0.000001 -132.566964 210.989748 278.299063 -0.000009 0.000000 -10.352388 -211.099509 -133.688358 -164.383843 0.000002 -0.000001 -12.750294 -84.371974 174.813801 -186.150331 2.460602 -0.518100 -2.735501 -4.881412 -0.777590 -1.505347 -0.000002 -0.000005 -17.005903 -141.944650 178.970805 -166.493975 -0.000004 0.000000 -19.194399 569.242445 157.388869 171.864976 -3.115495 -0.679596 -2.320300 5.515319 5.816721 -3.253968 0.000001 -0.000001 -17.680399 -845.019420 157.435655 -202.201029 0.000001 0.000005 -16.993795 1063.781418 52.031118 -392.793196
-10.059498 22.635302 44.908897 2442.529414 6.295812 5.066194 -0.201598 0.334098 6.453201 1.797928 -14.927573 3.654009 0.000001 0.000004 3.567991 0.292124 -1.248038 0.054852 -0.000004 -0.000003 8.296400 237.700173 -170.327323 186.989911 -0.000001 0.000002 2.173907 3.155551 -0.418946 5.339375 1.927597 0.221405 6.049005 -25.012742 5.735160 4.269426 4.959704 -0.000002 0.000000 115.150815 201.466251 70.440253 -0.000003 0.000003 -8.654194 58.719437 -35.888467 29.016508 -0.000001 -0.000002 -13.864104 4056.762990 -159.665016 145.182952 -3.155707 -0.764998 6.687807 49.584267 16.715877 -0.579152 -3.592906 0.000002 0.000004 -132.578179 210.721308 278.454463 -0.000013 0.000000 -10.352391 -211.233340 -133.542711 -164.354432 -0.000004 -0.000001 -12.750302 -84.448903 174.733888 -186.201339 2.460602 -0.518100 -2.735509 -4.876084 -0.801720 -1.515944 0.000000 -0.000005 -17.005896 -142.137316 178.953497 -166.517171 -0.000006 0.000003 -19.194399 569.325391 157.448524 171.857081 -3.115498 -0.679597 -2.320302 5.455484 5.782641 -3.266300 -0.000002 0.000002 -17.680397 -845.221484 157.351480 -202.155486 0.000003 0.000002 -16.993797 1064.047304 52.081207 -392.745276
-10.069201 22.623203 44.906193 2442.610065 6.308919 5.064917 -0.201597 0.334094 6.453204 1.831838 -14.856305 3.720679 0.000002 0.000006 3.567999 0.295613 -1.262043 0.053801 -0.000004 -0.000005 8.296405 237.260992 -169.951649 187.174285 -0.000007 0.000000 2.173900 3.427466 -0.487399 5.148980 1.927601 0.221404 6.049002 -25.105252 5.889133 4.223570 4.959700 -0.000001 0.000004 115.098824 201.734473 70.320144 0.000000 -0.000002 -8.654200 58.589349 -35.996022 29.225823 -0.000001 -0.000003 -13.864090 4056.811949 -160.060688 144.900278 -3.155706 -0.765001 6.687811 49.411986 16.508294 -0.834746 -3.592899 -0.000003 0.000006 -132.413858 210.327630 278.559075 -0.000010 -0.000006 -10.352394 -211.395051 -133.552287 -164.447678 -0.000000 -0.000003 -12.750300 -84.508305 174.642200 -186.169073 2.460601 -0.518105 -2.735501 -4.870769 -0.814043 -1.508372 -0.000002 -0.000003 -17.005901 -142.251271 178.930315 -166.536896 -0.000008 0.000009 -19.194399 569.349106 157.499326 171.852040 -3.115497 -0.679602 -2.320296 5.403282 5.770483 -3.264788 -0.000005 -0.000002 -17.680401 -845.384863 157.286074 -202.112210 -0.000000 0.000008 -16.993793 1064.241718 52.133731 -392.594766
-10.079399 22.608704 44.902996 2442.681755 6.329664 5.062371 -0.201598 0.334092 6.453199 2.081138 -14.812749 3.764196 -0.000002 0.000003 3.568003 0.237558 -1.278503 0.049990 0.000000 -0.000004 8.296389 236.876807 -169.737127 187.268569 0.000001 -0.000003 2.173896 3.374449 -0.600670 5.041505 1.927598 0.221403 6.048992 -25.317368 6.129569 4.410684 4.959700 -0.000002 0.000003 114.982697 201.958271 70.088218 -0.000005 0.000000 -8.654203 58.247710 -36.257704 29.397086 -0.000001 0.000004 -13.864102 4057.107888 -160.612568 144.651905 -3.155708 -0.764998 6.687804 49.552736 16.604998 -1.723918 -3.592906 -0.000004 0.000005 -132.336213 209.767964 279.241984 -0.000011 -0.000002 -10.352398 -211.437795 -133.583870 -164.424455 0.000000 -0.000005 -12.750294 -84.511023 174.576889 -186.123406 2.460604 -0.518104 -2.735503 -4.887065 -0.824300 -1.498678 -0.000002 -0.000004 -17.005905 -142.284015 178.911765 -166.544136 -0.000004 0.000008 -19.194397 569.328397 157.543204 171.836194 -3.115495 -0.679600 -2.320298 5.346935 5.760177 -3.262823 0.000002 -0.000004 -17.680393 -845.443821 157.248235 -202.084042 0.000006 0.000005 -16.993795 1064.342259 52.160427 -392.494990
